# xmcd CD database file
#
# Track frame offsets:
#	150
#	16075
#	32165
#	46042
#	60552
#	72095
#	81052
#	99417
#	111666
#	124116
#	143092
#	156812
#
# Disc length: 2353 seconds
#
# Revision: 0
# Processed by: cddbd v1.5.2PL0 Copyright (c) Steve Scherf et al.
# Submitted via: CDex 1.70beta2
#
DISCID=95092f0c
DTITLE=Glenn Labs - Best Laid Plans
DYEAR=2009
DGENRE=Rhythmic Soul
TTITLE0=Alls I'm Saying
TTITLE1=Best Laid Plans
TTITLE2=Dollar Bills
TTITLE3=It Don't Quit
TTITLE4=Please Change
TTITLE5=The Night Is Over
TTITLE6=I'm Losing You
TTITLE7=I Will Make You Stay
TTITLE8=Stay Behind
TTITLE9=Isn't She Right
TTITLE10=Someone You Know
TTITLE11=Wishing Well
EXTD=YEAR: 2009
EXTT0=
EXTT1=
EXTT2=
EXTT3=
EXTT4=
EXTT5=
EXTT6=
EXTT7=
EXTT8=
EXTT9=
EXTT10=
EXTT11=
PLAYORDER=
